<svg width="197" height="197" viewBox="0 0 197 197" fill="none" xmlns="http://www.w3.org/2000/svg">
<rect width="197" height="197" fill="#1D68B5"/>
<path d="M59.3462 139.131V114.643C59.3462 111.949 60.3046 109.643 62.2215 107.725C64.1384 105.807 66.4428 104.848 69.1346 104.848H127.865C130.557 104.848 132.861 105.807 134.778 107.725C136.695 109.643 137.654 111.949 137.654 114.643V139.131H59.3462ZM83.8173 99.95C77.0469 99.95 71.2758 97.5624 66.504 92.7872C61.7321 88.012 59.3462 82.2369 59.3462 75.4618C59.3462 68.6868 61.7321 62.9116 66.504 58.1364C71.2758 53.3612 77.0469 50.9736 83.8173 50.9736H113.183C119.953 50.9736 125.724 53.3612 130.496 58.1364C135.268 62.9116 137.654 68.6868 137.654 75.4618C137.654 82.2369 135.268 88.012 130.496 92.7872C125.724 97.5624 119.953 99.95 113.183 99.95H83.8173ZM69.1346 129.336H127.865V114.643H69.1346V129.336ZM83.8173 90.1547H113.183C117.261 90.1547 120.728 88.7263 123.583 85.8693C126.438 83.0124 127.865 79.5432 127.865 75.4618C127.865 71.3805 126.438 67.9113 123.583 65.0543C120.728 62.1974 117.261 60.7689 113.183 60.7689H83.8173C79.7388 60.7689 76.272 62.1974 73.4171 65.0543C70.5621 67.9113 69.1346 71.3805 69.1346 75.4618C69.1346 79.5432 70.5621 83.0124 73.4171 85.8693C76.272 88.7263 79.7388 90.1547 83.8173 90.1547ZM83.8173 80.3595C85.204 80.3595 86.3664 79.8901 87.3044 78.9514C88.2425 78.0127 88.7115 76.8495 88.7115 75.4618C88.7115 74.0742 88.2425 72.911 87.3044 71.9723C86.3664 71.0335 85.204 70.5642 83.8173 70.5642C82.4306 70.5642 81.2682 71.0335 80.3302 71.9723C79.3921 72.911 78.9231 74.0742 78.9231 75.4618C78.9231 76.8495 79.3921 78.0127 80.3302 78.9514C81.2682 79.8901 82.4306 80.3595 83.8173 80.3595ZM113.183 80.3595C114.569 80.3595 115.732 79.8901 116.67 78.9514C117.608 78.0127 118.077 76.8495 118.077 75.4618C118.077 74.0742 117.608 72.911 116.67 71.9723C115.732 71.0335 114.569 70.5642 113.183 70.5642C111.796 70.5642 110.634 71.0335 109.695 71.9723C108.757 72.911 108.288 74.0742 108.288 75.4618C108.288 76.8495 108.757 78.0127 109.695 78.9514C110.634 79.8901 111.796 80.3595 113.183 80.3595Z" fill="white"/>
<circle cx="83.8479" cy="75.4756" r="5.04812" fill="#50C7F9"/>
<circle cx="113.152" cy="75.4756" r="5.04812" fill="#50C7F9"/>
</svg>
