<svg width="412" height="398" viewBox="0 0 412 398" fill="none" xmlns="http://www.w3.org/2000/svg">
<path fill-rule="evenodd" clip-rule="evenodd" d="M197 2.10176C183.372 -0.719968 169.266 -0.708308 155.57 2.18423C138.206 5.85153 122.114 14.0206 108.909 25.8709C95.7034 37.7212 85.8506 52.8356 80.3397 69.6961C66.4263 72.5475 53.2821 78.3341 41.7855 86.6692C30.2889 95.0043 20.7048 105.696 13.6737 118.029C2.91819 136.508 -1.67864 157.926 0.547781 179.188C2.77421 200.45 11.7085 220.453 26.059 236.306C21.5676 249.768 20.0043 264.033 21.4739 278.148C22.9435 292.263 27.412 305.901 34.5805 318.15C45.2339 336.667 61.4944 351.324 81.0186 360.011C100.543 368.698 122.322 370.965 143.219 366.485C152.645 377.094 164.228 385.572 177.193 391.351C183.57 394.193 190.21 396.351 197 397.8V370.72C187.339 367.847 178.288 363.026 170.437 356.472L172.804 355.132L197 341.173V311.005L159.706 332.502C142.482 342.419 122.024 345.099 102.824 339.954C83.6245 334.81 67.252 322.26 57.3017 305.062C48.5096 289.889 45.3528 272.103 48.3867 254.834L50.7547 256.254L130.516 302.224C132.49 303.381 134.737 303.991 137.025 303.991C139.313 303.991 141.56 303.381 143.534 302.224L197 271.417V249.568L154.185 224.949L154.105 174.959L197 150.248V129.139L154.187 153.827V114.956C154.166 114.758 154.199 114.559 154.282 114.378C154.366 114.198 154.496 114.043 154.66 113.931L197 89.5189V59.5024L142.43 90.9827C140.447 92.1451 138.8 93.8032 137.652 95.794C136.504 97.7848 135.894 100.04 135.881 102.338L135.801 214.382L102.115 194.986C101.947 194.884 101.803 194.747 101.693 194.584C101.584 194.42 101.511 194.235 101.482 194.041V101.236C101.5 86.9989 105.574 73.0613 113.226 61.0527C120.878 49.0442 131.793 39.4609 144.693 33.4235C157.594 27.386 171.948 25.1439 186.077 26.9592C189.783 27.4353 193.434 28.1854 197 29.1973V2.10176ZM75.7638 98.7126C59.1433 104.675 45.1696 116.322 36.3165 131.593V131.199C26.4156 148.419 23.7458 168.858 28.8917 188.04C34.0377 207.223 46.58 223.586 63.772 233.546L144.323 279.987C144.505 280.084 144.708 280.134 144.915 280.134C145.121 280.134 145.324 280.084 145.507 279.987L179.194 260.512L82.2325 204.607C80.2434 203.478 78.5939 201.837 77.456 199.854C76.3182 197.87 75.7338 195.618 75.7638 193.332V98.7126Z" fill="black"/>
<path fill-rule="evenodd" clip-rule="evenodd" d="M216 397.978C324.347 396.367 411.997 307.72 411.997 198.993C411.997 90.2698 324.347 1.63278 216 0.0223389V20.1036C261.395 20.8509 302.67 38.5156 333.815 67.0532C333.551 67.0374 333.29 67.0156 333.029 66.9939C332.525 66.952 332.021 66.91 331.498 66.91C313.923 66.91 301.452 82.2192 301.452 98.6635C301.452 112.25 308.676 123.91 316.905 137.192C317.607 138.324 318.315 139.468 319.028 140.626C325.831 152.543 333.779 167.85 333.779 189.969C333.779 204.297 328.621 220.778 321.63 243.121C321.15 244.655 320.661 246.217 320.165 247.807L302.314 307.433L237.655 115.108C248.426 114.541 258.132 113.408 258.132 113.408C267.772 112.267 266.635 98.0991 256.99 98.6635C256.99 98.6635 234.205 100.452 216 100.857V215.049L216.14 214.643L271.131 365.312C271.493 366.196 271.937 367.011 272.411 367.777C254.71 374.009 235.753 377.568 216 377.896V397.978ZM391.91 198.993C391.91 167.886 383.962 138.642 369.997 113.16C370.765 118.858 371.199 124.971 371.199 131.558C371.199 149.706 367.8 170.116 357.593 195.64L302.948 353.639C356.138 322.627 391.91 264.999 391.91 198.993Z" fill="black"/>
</svg>
